<svg width="171" height="32" viewBox="0 0 171 32" fill="none" xmlns="http://www.w3.org/2000/svg">
<path d="M21.1991 3.35C21.2484 3.4 21.2484 3.4 21.2976 3.4C21.2484 3.4 21.2484 3.35 21.1991 3.35ZM23.8096 21.8C21.9379 25.3 19.2782 27.95 16.2736 29.2C14.9437 29.85 13.5646 30.15 12.2347 30.15C11.1018 30.15 9.96896 29.9 8.93461 29.45C8.63908 29.3 8.29429 29.1 7.90025 28.9L7.70323 28.7C2.92549 25.45 1.94039 17.15 5.58526 10.3C7.4077 6.8 10.0675 4.15 13.1213 2.85C14.5004 2.2 15.8303 1.9 17.1602 1.9C18.3423 1.9 19.4752 2.15 20.4603 2.6L21.2484 3.05C21.2976 3.05 21.3469 3.1 21.3469 3.1L21.4946 3.15L21.6917 3.35C24.4992 5.25 26.0754 8.95 26.0261 13.3L28.9322 13.35C28.2426 8.75 25.7306 4.75 22.0857 2.35L22.0365 2.3C21.9872 2.3 21.9872 2.25 21.9379 2.25L21.8394 2.2C19.6722 0.800002 17.2095 0.100002 14.6974 0.100002C6.71813 0.100002 0.265717 7.25 0.265717 16.05C0.265717 21.2 2.48219 26 6.27483 28.95C6.61962 29.25 6.81664 29.4 7.06292 29.55C7.30919 29.75 7.50621 29.85 7.70323 30C7.99876 30.15 8.29429 30.35 8.58982 30.45C10.5108 31.45 12.5795 31.95 14.6974 31.95C21.4946 31.95 27.4053 26.7 28.8337 19.4L24.7947 19.5C24.4992 20.3 24.1544 21.1 23.8096 21.8Z" fill="white"/>
<path d="M34.757 32V0.0500023H31.7031V32H34.757Z" fill="white"/>
<path d="M51.2343 15.9C56.8001 15.55 60.9376 11.8 60.9376 7.7C60.9376 2.3 54.6822 0.0500023 48.8208 0.0500023C42.861 0.0500023 41.137 0.0500023 41.137 0.0500023H38.822V31.9H42.0729V16.05C49.2641 16.05 57.3419 16.25 57.3419 31.75V31.9H60.9376V31.85C60.9376 23.55 57.9823 18 51.2343 15.9ZM42.0729 15V1.15H50.594C53.303 1.25 55.815 2.5 56.8001 4.9C58.2778 8.4 56.2583 12.55 52.3179 14.3C51.2836 14.75 50.1507 14.95 49.1163 15H42.0729Z" fill="white"/>
<path d="M83.8262 3.35C83.8754 3.4 83.8754 3.4 83.9247 3.4C83.8754 3.4 83.8754 3.35 83.8262 3.35ZM86.4367 21.8C84.565 25.3 81.9052 27.95 78.9007 29.2C77.5708 29.85 76.1916 30.15 74.8617 30.15C73.7289 30.15 72.596 29.9 71.5616 29.45C71.2661 29.3 70.9213 29.1 70.5273 28.9L70.3303 28.7C65.5525 25.45 64.5674 17.15 68.2123 10.3C70.0347 6.8 72.6945 4.15 75.7483 2.85C77.1275 2.2 78.4574 1.9 79.7872 1.9C80.9694 1.9 82.1022 2.15 83.0873 2.6L83.8754 3.05C83.9247 3.05 83.9739 3.1 83.9739 3.1L84.1217 3.15L84.3187 3.35C87.1262 5.25 88.7024 8.95 88.6532 13.3L91.5592 13.35C90.8696 8.75 88.3576 4.75 84.7128 2.35L84.6635 2.3C84.6142 2.3 84.6142 2.25 84.565 2.25L84.4665 2.2C82.2993 0.800002 79.8365 0.100002 77.3245 0.100002C69.3452 0.100002 62.8928 7.25 62.8928 16.05C62.8928 21.2 65.1092 26 68.9019 28.95C69.2467 29.25 69.4437 29.4 69.69 29.55C69.9362 29.75 70.1333 29.85 70.3303 30C70.6258 30.15 70.9213 30.35 71.2169 30.45C73.1378 31.45 75.2065 31.95 77.3245 31.95C84.1217 31.95 90.0323 26.7 91.4607 19.4L87.4218 19.5C87.1262 20.3 86.7815 21.1 86.4367 21.8Z" fill="white"/>
<path d="M116.84 1.25V0.100002H94.3302V31.95H116.84V30.75H97.3347V16.7H114.968V15.4H97.3347V1.25H116.84Z" fill="white"/>
<path d="M142.003 0L131.364 17.5V17.55L131.315 17.5L120.725 0H116.785L129.098 18.6V31.95H132.152V18.6L144.466 0H142.003Z" fill="white"/>
<path d="M157.262 0.0500023H152.977L140.023 31.95H142.732L147.017 20.4H161.646L165.931 31.95H170.266L157.262 0.0500023ZM147.51 19.1L154.356 0.750002L161.154 19.1H147.51Z" fill="white"/>
</svg>
