<svg width="24" height="13" viewBox="0 0 24 13" fill="none" xmlns="http://www.w3.org/2000/svg">
<path d="M0.665758 0.651989C0.844353 0.477544 1.0841 0.379883 1.33376 0.379883C1.58341 0.379883 1.82316 0.477544 2.00176 0.651989L11.9998 10.398L21.9957 0.651989C22.1743 0.477544 22.4141 0.379883 22.6637 0.379883C22.9134 0.379883 23.1531 0.477544 23.3317 0.651989C23.4188 0.736781 23.488 0.83816 23.5353 0.950143C23.5826 1.06213 23.6069 1.18244 23.6069 1.30399C23.6069 1.42554 23.5826 1.54585 23.5353 1.65784C23.488 1.76982 23.4188 1.8712 23.3317 1.95599L12.6978 12.32C12.511 12.502 12.2605 12.6039 11.9998 12.6039C11.739 12.6039 11.4885 12.502 11.3018 12.32L0.667758 1.95599C0.580671 1.8712 0.511454 1.76982 0.464191 1.65784C0.416928 1.54585 0.392578 1.42554 0.392578 1.30399C0.392578 1.18244 0.416928 1.06213 0.464191 0.950143C0.511454 0.83816 0.580671 0.736781 0.667758 0.651989H0.665758Z" fill="#141414"/>
</svg>
